<?xml version="1.0" encoding="UTF-8"?>
<!DOCTYPE svg PUBLIC "-//W3C//DTD SVG 1.1//EN" "http://www.w3.org/Graphics/SVG/1.1/DTD/svg11.dtd">
<!-- Creator: CorelDRAW X8 -->
<svg xmlns="http://www.w3.org/2000/svg" xml:space="preserve" width="155.121mm" height="144.885mm" version="1.1" style="shape-rendering:geometricPrecision; text-rendering:geometricPrecision; image-rendering:optimizeQuality; fill-rule:evenodd; clip-rule:evenodd"
viewBox="0 0 15512 14489"
 xmlns:xlink="http://www.w3.org/1999/xlink">
 <defs>
  <style type="text/css">
   <![CDATA[
    .fil0 {fill:#858585}
   ]]>
  </style>
 </defs>
 <g id="Layer_x0020_1">
  <metadata id="CorelCorpID_0Corel-Layer"/>
  <g id="_1715605803616">
  </g>
  <g id="_1715605801344">
  </g>
  <g id="_1715605802240">
  </g>
  <g id="_1715605801696">
  </g>
  <g id="_1715538229616">
  </g>
  <g id="_1715538227440">
  </g>
  <g id="_1715538226416">
  </g>
  <g id="_1715538223920">
  </g>
  <g id="_1715538224784">
  </g>
  <g id="_1715538222640">
  </g>
  <g id="_1715538222544">
  </g>
  <g id="_1715538223600">
  </g>
  <g id="_1715538221904">
  </g>
  <g id="_1715538221168">
  </g>
  <g id="_1715538221104">
  </g>
  <g id="_2615028605584">
   <g id="_1715611751728">
    <polygon class="fil0" points="1423,5766 2007,4671 7125,7180 12241,4085 12923,5231 7806,8203 7757,14489 6589,14489 6589,8203 "/>
    <g>
     <path class="fil0" d="M8649 11981l0 172c158,284 124,386 702,385 365,-2 732,-2 1098,0 365,0 333,77 727,-367 105,-116 142,-161 267,-281 78,-75 197,-208 257,-290 113,77 188,184 287,289 100,106 193,177 291,286 215,237 145,212 33,919 -44,280 -177,791 -37,1009 172,268 563,283 779,6 126,-161 340,-1600 407,-1945 68,-341 59,-255 -382,-696 -124,-124 -520,-483 -589,-613l762 -748c461,365 683,988 1236,433 306,-311 782,-738 1025,-1093l0 -180c-43,-74 -105,-269 -312,-322 -439,-109 -639,480 -1060,751 -112,-32 -235,-159 -320,-252 -100,-109 -195,-173 -307,-272 -235,-209 -290,-417 -745,-416 -281,0 -921,-35 -1159,4 -151,24 -212,159 -317,262 -97,96 -190,165 -291,259l-591 568c-230,268 -57,672 283,677 298,6 510,-345 653,-504 94,-107 193,-180 290,-289 158,-181 96,-147 405,-151l-1363 1542c-434,429 -294,476 -624,473 -234,-2 -925,-25 -1072,25 -233,78 -221,162 -333,359l0 0z"/>
     <path class="fil0" d="M13955 7709c-896,193 -662,1557 273,1383 345,-65 638,-410 553,-847 -65,-327 -402,-626 -826,-536l0 0z"/>
    </g>
    <g>
     <path class="fil0" d="M4088 8752l239 121c-212,96 -402,195 -616,289 -812,362 -662,458 -311,1797 59,227 128,460 186,703 28,123 58,235 94,367 52,185 50,162 -36,320 -209,382 -424,792 -619,1190 -124,249 -33,522 218,576 325,70 397,-167 503,-381 666,-1335 734,-1156 857,-2756 46,-587 -220,-983 -282,-1499 1521,-476 788,-744 -191,-1310 21,290 -22,339 -42,583l0 0z"/>
     <path class="fil0" d="M326 10289c149,67 342,243 389,403 -239,47 -259,22 -399,-120l10 -283zm258 -209l1865 -1345c137,94 156,252 442,334 769,220 1257,-751 721,-1248 -436,-401 -1159,-131 -1231,412 -43,329 80,104 -598,615l-1393 1005c-165,113 -323,197 -374,453 -191,957 1394,869 950,196 -92,-140 -269,-320 -382,-422l0 0z"/>
     <path class="fil0" d="M4866 11338c-52,259 -85,609 -117,873 -84,690 -296,93 231,1476 89,235 174,533 546,418 297,-91 251,-392 148,-654l-808 -2113z"/>
     <path class="fil0" d="M652 7682c-242,184 -427,649 -514,932 -110,347 -247,1382 105,1031 63,-63 74,-517 96,-634 66,-372 203,-726 419,-1023 39,-52 132,-152 115,-249 -11,-59 -30,-82 -78,-99 -142,-51 -135,35 -143,42l0 0z"/>
     <path class="fil0" d="M1035 8788c0,148 147,227 249,123 126,-127 -35,-329 255,-701 77,-99 217,-177 226,-280 33,-445 -730,108 -730,859l0 -1z"/>
     <path class="fil0" d="M316 10572c140,142 160,167 399,120 -47,-160 -240,-336 -389,-403l-10 283z"/>
    </g>
    <g>
     <path class="fil0" d="M7237 2400c-66,31 -694,173 -818,204l-1654 402c-231,58 -347,124 -488,289 -31,36 -83,115 -88,171 140,-12 206,-131 357,-222 286,-173 737,-173 1023,0 76,45 101,74 166,125 136,108 121,97 313,97 252,0 242,-351 930,-351 523,0 615,351 837,351 223,0 188,4 355,-132 62,-51 155,-123 239,-142 0,-411 -233,-697 -459,-1003l-607 -856c65,-16 775,-597 849,-658 124,-100 202,-158 202,-347 0,-89 -47,-178 -94,-225 -131,-130 -323,-136 -474,-23l-937 738c-103,75 -293,212 -335,321 -78,202 20,321 131,471 97,131 182,260 279,391 50,68 89,128 139,197 34,45 121,157 134,202l0 0z"/>
     <path class="fil0" d="M8561 2004c0,235 31,454 181,642 619,782 1754,302 1754,-565 0,-893 -1067,-1285 -1650,-706 -128,128 -285,379 -285,629l0 0z"/>
     <path class="fil0" d="M3031 4030c0,320 212,112 452,296 147,112 214,205 440,244 190,34 440,15 582,-57 74,-38 137,-86 198,-137 148,-126 291,-181 514,-123 148,38 229,189 414,270 107,45 159,44 293,59 433,47 581,-174 735,-275 145,-96 387,-100 534,-6 141,88 324,335 733,282 250,-32 287,-23 498,-187 164,-128 212,-190 500,-151 268,36 331,430 1003,327 131,-20 256,-78 345,-157 140,-127 178,-154 356,-176 134,-16 188,-67 203,-123l0 -75c-10,-46 -37,-85 -52,-96 -141,-106 -450,26 -562,95 -248,153 -123,218 -559,218 -288,0 -326,-349 -852,-349 -348,0 -447,125 -632,267 -128,98 -237,82 -390,82 -286,0 -327,-349 -852,-349 -207,0 -335,48 -460,133 -284,189 -166,216 -562,216 -286,0 -319,-349 -852,-349 -521,0 -568,349 -853,349 -148,0 -258,16 -382,-75 -163,-121 -274,-274 -623,-274 -71,0 -169,59 -169,121l0 0z"/>
     <path class="fil0" d="M3031 3420c0,320 226,122 452,296 133,102 224,210 439,247 657,114 753,-278 1005,-323 424,-75 442,159 704,273 111,47 154,43 289,63 364,54 550,-137 741,-278 132,-96 408,-94 532,-6 152,106 200,196 427,259 65,18 233,39 310,27 248,-37 289,-30 494,-192 158,-123 217,-190 499,-148 283,41 318,423 1005,327 127,-17 250,-82 344,-159 143,-116 147,-151 359,-175 128,-14 185,-68 200,-126l0 -74c-11,-47 -41,-88 -73,-105 -42,-22 -91,-30 -149,-22 -551,76 -448,300 -742,342 -462,64 -464,-193 -751,-293 -192,-66 -394,-70 -587,-11 -328,101 -275,308 -656,312 -434,5 -389,-355 -941,-355 -181,0 -352,54 -489,152 -148,107 -162,200 -444,203 -430,5 -388,-355 -941,-355 -91,0 -224,26 -300,51 -310,103 -276,351 -748,297 -195,-22 -291,-188 -450,-267 -96,-49 -168,-55 -294,-73 -59,-9 -100,-9 -151,13 -34,17 -84,60 -84,100l0 0z"/>
    </g>
   </g>
  </g>
 </g>
</svg>
