<?xml version="1.0" encoding="UTF-8"?>
<!DOCTYPE svg PUBLIC "-//W3C//DTD SVG 1.1//EN" "http://www.w3.org/Graphics/SVG/1.1/DTD/svg11.dtd">
<!-- Creator: CorelDRAW X8 -->
<svg xmlns="http://www.w3.org/2000/svg" xml:space="preserve" width="54.241mm" height="35.017mm" version="1.1" style="shape-rendering:geometricPrecision; text-rendering:geometricPrecision; image-rendering:optimizeQuality; fill-rule:evenodd; clip-rule:evenodd"
viewBox="0 0 5424 3502"
 xmlns:xlink="http://www.w3.org/1999/xlink">
 <defs>
  <style type="text/css">
   <![CDATA[
    .fil0 {fill:#858585}
   ]]>
  </style>
 </defs>
 <g id="Layer_x0020_1">
  <metadata id="CorelCorpID_0Corel-Layer"/>
  <g id="_2211502446608">
   <g id="_2581406538160">
    <path class="fil0" d="M3101 1404l0 0zm-278 -494l0 0zm0 0c5,20 22,34 43,38 29,-19 50,-47 73,-75 43,-50 96,-94 141,-142 0,-1 1,-2 2,-3l120 -124c40,-43 84,-82 122,-127l131 -137c-5,-22 -19,-31 -34,-47l-13 -11c-11,-10 -25,-20 -29,-33 -38,0 -52,30 -76,54l-64 69c-24,24 -44,44 -67,67l-195 204c-23,23 -43,44 -66,67l-49 52c-11,12 -2,9 -20,14 -2,-23 -10,-39 -16,-61 -5,-19 -11,-48 -12,-68 -10,-152 14,-258 98,-381 66,-95 169,-170 282,-202 175,-49 356,-16 499,96 24,19 63,57 81,81 52,67 87,139 107,220 37,151 -8,238 -9,286 -11,-8 -15,-13 -25,-22 -1,-1 -4,-4 -6,-5l-12 -10c-4,-4 -4,-3 -8,-7l-24 -24c-52,-47 -99,-100 -151,-146l-74 -74c-10,-10 -15,-16 -24,-24l-78 -71c-28,19 -49,46 -73,71l-63 66c-30,35 -68,63 -98,99 -38,47 -84,89 -127,132l-180 188c-11,15 -24,28 -39,38 24,35 133,134 142,141 4,4 4,3 8,7 29,26 68,59 90,92l-161 69c-77,38 -293,180 -308,185 -57,20 -118,20 -178,23 -22,1 -56,9 -81,7 -15,-2 -11,-6 -29,-2 0,27 7,34 19,48l199 261c13,16 -1,11 26,12 8,-15 3,-23 11,-42l55 -113c58,-118 92,-149 241,-199 99,-33 116,-26 166,-40 2,0 3,-1 4,-1l7 -2c14,6 22,0 43,-1 64,-2 222,25 274,71 17,15 12,14 33,25 -3,34 -17,16 16,46l70 64c16,-8 127,-123 144,-142l123 -127c9,-9 10,-11 18,-21 7,-8 1,-2 9,-9l124 -126c15,-15 20,-25 36,-40l113 -117c0,-1 1,-2 2,-3l34 -37c-12,-15 -70,-78 -87,-85 -40,-17 16,44 -90,-64 -17,-17 -43,-45 -62,-57 15,-33 25,-96 31,-141 28,-188 -73,-410 -228,-520 -109,-78 -203,-120 -369,-120 -120,0 -272,62 -353,131 -10,8 -14,15 -24,23 -27,21 -62,66 -83,94 -106,144 -133,352 -74,526 5,15 10,22 13,35 -23,34 -62,38 -21,78 12,12 14,19 30,23l0 0z"/>
    <path class="fil0" d="M3690 2515c0,-47 6,-76 42,-112 92,-92 250,-23 250,97 0,141 -161,196 -243,114 -25,-25 -49,-50 -49,-99zm379 -153l0 -5c22,-47 -33,-106 -103,-83 -20,7 -29,21 -46,25 -12,-142 -168,-126 -168,5 -23,-16 -44,-44 -104,-32 -6,1 -10,2 -17,6 -23,15 -37,43 -32,83 3,21 23,47 34,63 -91,0 -144,89 -71,143 22,16 41,17 71,24 -19,28 -61,85 -14,133 14,13 42,24 68,18 40,-8 38,-17 65,-31 5,59 27,79 67,101l0 690 34 0 0 -695c43,-4 63,-52 67,-96 18,7 0,0 12,7 36,22 83,40 120,6 26,-23 28,-72 6,-108 -9,-15 -14,-13 -18,-29 104,0 128,-98 70,-142 -18,-14 -40,-21 -70,-21 6,-25 25,-24 29,-62l0 0z"/>
    <path class="fil0" d="M323 2510c0,-85 66,-148 129,-148 68,0 122,16 149,85 43,107 -26,197 -127,205 -78,5 -151,-64 -151,-142l0 0zm96 -287l0 0zm0 0c-19,13 -33,49 -34,81 -22,-15 -83,-67 -133,-13 -53,56 9,118 13,133 -57,0 -104,35 -104,81 -1,27 15,45 31,59 24,20 64,22 68,27 8,7 -2,8 -11,22 -43,65 1,189 136,98 3,42 27,93 67,96l0 695 33 0 0 -695c28,-1 37,-16 48,-34 11,-15 20,-34 20,-62 17,5 10,6 27,16 56,33 136,14 125,-73 -3,-33 -22,-41 -28,-67 131,0 131,-163 -5,-163 66,-99 26,-163 -57,-153 -30,4 -42,19 -62,33 0,-99 -98,-131 -134,-81l0 0z"/>
    <path class="fil0" d="M4677 2558l0 0zm134 -48c0,-82 64,-148 129,-148l34 0c154,0 190,273 -11,291 -71,6 -152,-64 -152,-143l0 0zm-134 48c21,29 65,29 76,33 -14,23 -42,57 -30,98 16,63 84,66 127,38 25,-17 23,-27 29,7 6,32 27,70 61,73 0,117 0,233 0,350l0 345 34 0 0 -695c21,-1 16,0 28,-10 13,-11 11,-10 20,-23 11,-16 19,-34 19,-63 15,4 80,62 132,13 15,-15 26,-43 20,-74 -5,-28 -21,-41 -32,-63 60,0 105,-36 104,-82 0,-44 -44,-81 -104,-81 69,-103 20,-163 -57,-153 -35,4 -42,19 -63,33 0,-99 -94,-138 -142,-75 -16,21 -19,41 -26,70 -18,-10 -38,-26 -62,-29 -85,-8 -123,56 -58,154 -98,0 -131,97 -76,134l0 0z"/>
    <path class="fil0" d="M1443 2500c0,-29 21,-73 42,-97 70,-76 251,-53 251,107 0,128 -160,191 -251,97 -22,-23 -42,-63 -42,-107zm68 -196c-46,-31 -45,-34 -91,-34 -54,0 -84,56 -55,117 10,22 15,21 26,37 -110,0 -134,99 -73,145 16,11 51,24 68,18 -4,17 -66,88 -6,140 53,46 118,-13 131,-16 0,45 22,93 62,96l0 695 33 0 0 -681c0,-14 0,-6 14,-15 31,-21 54,-38 54,-95 14,4 47,37 88,31 80,-10 73,-90 53,-124 -10,-16 -12,-9 -17,-31 82,0 138,-79 68,-141 -19,-17 -38,-22 -73,-22 23,-34 56,-91 17,-132 -24,-24 -34,-22 -65,-22 -36,0 -50,20 -71,34 0,-28 -8,-55 -21,-71 -59,-73 -142,-22 -142,71l0 0z"/>
    <path class="fil0" d="M2771 2783l0 0zm-77 -421l38 0c67,0 135,80 127,151 -18,190 -278,177 -292,4 -5,-58 28,-112 72,-138 15,-8 34,-17 55,-17zm-254 90l0 0zm0 0c-54,15 -47,119 44,134 47,7 24,4 7,32 -52,87 39,159 114,110 15,-11 9,-12 27,-17 0,26 6,49 18,63 16,21 26,26 49,38l0 690 33 0 0 -695c19,-2 30,-12 39,-24 20,-24 23,-36 23,-72 29,7 25,22 67,30 65,12 116,-46 76,-124 -10,-18 -14,-13 -18,-30 34,0 49,-7 70,-21 57,-39 33,-142 -70,-142 4,-17 4,-5 15,-28 36,-72 9,-133 -73,-126 -31,4 -40,23 -67,29 0,-17 0,-27 -4,-38 -32,-97 -158,-78 -158,43 -18,-11 -39,-30 -63,-33 -73,-9 -101,36 -91,90 6,29 20,43 34,63 -22,0 -25,1 -42,6 -19,6 -26,5 -30,22l0 0z"/>
    <path class="fil0" d="M3877 3386c8,-12 6,-20 23,-43 18,-25 14,-17 33,-35l226 -175c-5,66 -85,185 -155,237l-62 39c-4,2 -5,2 -10,5l-9 4c-1,1 -2,1 -3,2 149,0 295,-57 348,-184 31,-75 35,-95 35,-180 0,-40 -11,-88 -24,-115 -73,17 -255,128 -327,200 -67,67 -75,140 -75,245l0 0z"/>
    <path class="fil0" d="M1123 3056c0,119 33,212 108,279 66,58 188,85 275,85 -1,-1 -3,-3 -3,-2l-114 -77c-7,-8 -9,-10 -17,-17 -39,-38 -102,-145 -106,-191 37,19 231,168 260,210l23 43c0,-147 -18,-204 -129,-292 -40,-32 -81,-56 -128,-83 -30,-18 -112,-62 -146,-70 -7,34 -23,50 -23,115l0 0z"/>
    <path class="fil0" d="M3748 3420c-18,-15 -92,-40 -149,-115 -18,-23 -37,-50 -51,-78 -26,-53 -29,-72 -40,-94 19,5 59,40 77,52l76 59c11,9 24,16 35,26 7,7 10,11 17,17 89,79 49,58 78,90 0,-40 10,-14 -2,-95 -2,-21 -16,-59 -26,-79 -14,-29 -27,-39 -44,-61 -13,-17 -39,-33 -56,-49 -26,-23 -96,-66 -128,-83l-69 -37c-24,-11 -53,-26 -78,-32 -2,25 -32,77 -18,190 8,62 32,108 64,157 35,52 66,69 125,95 45,21 125,37 189,37l0 0z"/>
    <path class="fil0" d="M4490 3056c0,112 13,145 65,231l31 37c1,1 2,1 3,2 1,1 1,2 2,3 57,55 170,91 278,91 -6,-4 2,0 -9,-6 -33,-21 -45,-21 -87,-57l-18 -15c-15,-13 -18,-21 -32,-36 -26,-30 -88,-133 -89,-173l89 64c0,1 2,2 2,2l25 19c35,26 120,94 143,125 6,7 8,12 12,21l8 17c0,0 1,2 2,3 0,0 1,2 1,2 0,-118 -17,-211 -115,-281 -8,-6 -9,-6 -17,-13 -47,-40 -108,-70 -163,-100 -25,-14 -86,-49 -112,-51 -2,26 -19,60 -19,115l0 0z"/>
    <path class="fil0" d="M4998 3386c13,-15 11,-25 24,-43 20,-30 144,-130 180,-155 17,-12 69,-52 83,-55 -31,66 -22,85 -92,171 -36,44 -76,77 -126,103l-21 13c98,0 190,-25 265,-80 52,-39 113,-146 113,-236 0,-149 -15,-110 -19,-163 -17,1 -89,37 -110,48 -70,39 -103,56 -165,103 -95,72 -132,131 -132,294l0 0z"/>
    <path class="fil0" d="M553 3185l0 0zm105 -105l0 0zm0 0l-59 47c-13,12 -42,42 -46,58l-21 37c-23,54 -23,104 -23,164 1,0 2,-3 2,-2 3,7 3,-6 3,-7l19 -34c20,-27 79,-77 105,-96l154 -114c-2,29 -23,69 -36,93 -18,31 -29,52 -51,78 -2,2 -4,5 -7,8l-7 8c-26,31 -56,54 -92,75 -8,6 -11,7 -21,12 -1,1 -8,4 -10,5 -9,6 -4,3 -10,8 75,0 158,-21 218,-50 32,-15 71,-47 91,-76l40 -70c62,-138 13,-241 10,-283 -28,3 -106,48 -134,62l-122 75c-1,1 -2,1 -3,2l0 0z"/>
    <path class="fil0" d="M423 3320l0 0zm0 0c13,-29 -27,-124 -42,-145 -29,-39 -63,-68 -101,-95 -19,-13 -39,-25 -58,-38 -29,-20 -171,-98 -201,-101 -1,18 -7,24 -11,42 -2,9 -6,34 -8,45 -10,97 11,186 67,263 16,23 32,38 55,55 61,49 177,74 256,74 -5,-4 2,0 -8,-6 -5,-3 -3,-2 -9,-5 -9,-5 -14,-6 -23,-11l-56 -40c-5,-5 -1,-1 -7,-7 -1,-1 -4,-4 -5,-5l-37 -40c-31,-37 -89,-126 -90,-173l40 27c56,41 207,146 231,205 3,5 2,5 5,10 5,11 1,5 7,11 0,-11 0,-22 0,-33l-5 -33 0 0z"/>
    <path class="fil0" d="M2761 3382c6,-26 17,-41 36,-60l15 -18c33,-31 147,-115 186,-145 16,-12 24,-17 41,-26 -27,116 -118,227 -227,281l-13 6c104,0 220,-36 274,-85 99,-88 140,-279 85,-394 -31,7 -115,51 -143,68 -22,14 -42,25 -66,39 -58,35 -140,100 -166,160 -26,62 -24,65 -28,131 0,16 -2,10 -1,22 0,0 2,10 3,10 3,12 0,5 4,11l0 0z"/>
    <path class="fil0" d="M1635 3377l11 -17c21,-36 51,-61 82,-87 21,-19 166,-134 190,-140 -18,76 -74,159 -129,211l-7 7c-40,40 -92,59 -104,69 67,0 136,-16 186,-35 58,-22 91,-49 126,-94 29,-36 56,-98 65,-155 12,-81 -1,-125 -17,-195 -81,19 -321,159 -374,259 -20,38 -42,123 -29,177l0 0z"/>
    <path class="fil0" d="M2430 3023l0 0zm0 0c-5,-5 -9,-8 -16,-13l-147 -69c-9,20 -16,61 -21,89 -6,37 -2,70 2,103 7,49 9,36 16,57 0,0 0,2 0,3 42,159 203,227 363,227 -1,-1 -3,-3 -3,-2l-16 -8c-106,-55 -194,-164 -221,-277 54,36 243,166 271,227 3,5 2,5 4,10 6,12 1,4 8,12 0,-85 -3,-167 -66,-232 -56,-57 -101,-89 -174,-127l0 0z"/>
    <path class="fil0" d="M4854 2500c0,60 42,107 101,107 140,3 134,-202 9,-202l-24 0c-40,0 -86,54 -86,95z"/>
    <path class="fil0" d="M2612 2496c0,166 202,123 202,28 0,-36 2,-59 -26,-89 -52,-59 -176,-30 -176,61z"/>
    <path class="fil0" d="M366 2505c0,135 206,137 206,0 0,-54 -51,-100 -87,-100l-23 0c-52,0 -96,48 -96,100z"/>
    <path class="fil0" d="M1693 2510c0,-36 -12,-63 -37,-84 -53,-43 -137,-23 -161,44 -30,84 51,162 135,131 30,-12 63,-49 63,-91l0 0z"/>
    <path class="fil0" d="M3733 2500c0,41 18,75 50,94 68,40 162,-15 154,-92 -14,-145 -204,-115 -204,-2l0 0z"/>
    <path class="fil0" d="M1856 2098c0,27 51,55 99,-20 29,-44 21,-38 40,-76 -47,4 -139,48 -139,96z"/>
    <path class="fil0" d="M2162 1705c0,47 78,58 158,-62 -43,0 -158,9 -158,62z"/>
    <path class="fil0" d="M1966 2314c0,19 19,33 37,31 20,-2 29,-19 37,-33 17,-27 26,-77 26,-118 -18,4 -50,32 -63,47 -14,15 -37,46 -37,73l0 0z"/>
    <path class="fil0" d="M1578 2088c32,0 59,-20 77,-42 16,-22 36,-52 43,-77 -42,9 -126,32 -141,76 -5,15 7,43 21,43z"/>
    <path class="fil0" d="M2124 1940c0,23 32,54 83,1 19,-20 44,-67 51,-97 -44,4 -134,54 -134,96z"/>
    <path class="fil0" d="M2406 1897c53,0 95,-93 96,-134 -44,10 -112,56 -122,94 -5,18 11,40 26,40z"/>
    <path class="fil0" d="M1884 1878c0,72 99,32 154,-72 -32,7 -61,9 -91,20 -19,6 -63,28 -63,52l0 0z"/>
    <path class="fil0" d="M2234 2108c0,48 96,66 96,-125 -33,22 -96,74 -96,125z"/>
    <polygon class="fil0" points="4069,2357 4069,2362 "/>
   </g>
  </g>
 </g>
</svg>
