<svg width="46" height="46" viewBox="0 0 46 46" fill="none" xmlns="http://www.w3.org/2000/svg">
<g clip-path="url(#clip0_226_231)">
<path d="M39.2635 6.73648C34.9193 2.39236 29.1435 0 23 0C16.8565 0 11.0807 2.39236 6.73648 6.73648C2.39227 11.0806 0 16.8565 0 23C0 29.1435 2.39236 34.9193 6.73648 39.2635C11.0806 43.6077 16.8565 46 23 46C29.1435 46 34.9193 43.6076 39.2635 39.2635C43.6077 34.9194 46 29.1435 46 23C46 16.8565 43.6076 11.0807 39.2635 6.73648ZM39.072 35.0983C37.6965 34.1674 36.2566 33.363 34.7638 32.6914C35.4231 30.1204 35.8147 27.3289 35.9123 24.4375H43.0731C42.7906 28.4208 41.3441 32.0874 39.072 35.0983ZM2.92693 24.4375H10.0877C10.1854 27.3289 10.5769 30.1205 11.2362 32.6914C9.74338 33.363 8.30354 34.1673 6.92803 35.0983C4.65588 32.0874 3.2094 28.4208 2.92693 24.4375ZM6.92767 10.9022C8.30318 11.8331 9.74302 12.6375 11.236 13.3091C10.5768 15.88 10.1853 18.6712 10.0876 21.5625H2.92693C3.2094 17.5794 4.65579 13.913 6.92767 10.9022ZM32.4001 7.07654C31.8733 6.08898 31.3042 5.19782 30.6989 4.40702C33.1309 5.41776 35.3234 6.89191 37.1656 8.71925C36.1211 9.40547 35.0361 10.0102 33.9173 10.5327C33.4783 9.30512 32.9714 8.14766 32.4001 7.07654ZM31.2353 11.605C28.6108 12.4848 25.8411 12.9375 23 12.9375C20.1589 12.9375 17.3892 12.4848 14.7647 11.605C16.6032 6.37136 19.6408 2.875 23 2.875C26.3592 2.875 29.3968 6.37136 31.2353 11.605ZM12.9647 21.5625C13.0596 19.0161 13.4036 16.5833 13.9473 14.3646C16.8346 15.3209 19.8786 15.8125 23 15.8125C26.1214 15.8125 29.1654 15.3209 32.0527 14.3646C32.5965 16.5833 32.9404 19.0161 33.0353 21.5625H12.9647ZM33.0353 24.4375C32.9403 26.984 32.5964 29.417 32.0526 31.6358C29.1651 30.6793 26.1211 30.1875 23 30.1875C19.8789 30.1875 16.8349 30.6793 13.9474 31.6358C13.4036 29.417 13.0596 26.984 12.9647 24.4375H33.0353ZM13.5999 7.07654C13.0287 8.14766 12.5218 9.30512 12.0827 10.5327C10.964 10.0102 9.87886 9.40538 8.83443 8.71916C10.6765 6.89173 12.869 5.41767 15.3011 4.40693C14.6958 5.19782 14.1266 6.08898 13.5999 7.07654ZM12.0828 35.4679C12.5218 36.6952 13.0287 37.8525 13.5998 38.9235C14.1266 39.911 14.6957 40.8022 15.301 41.593C12.8692 40.5822 10.6769 39.1084 8.83488 37.2812C9.87931 36.5951 10.9643 35.9903 12.0828 35.4679ZM14.7649 34.3953C17.3895 33.5154 20.1591 33.0625 23 33.0625C25.8409 33.0625 28.6105 33.5154 31.2351 34.3953C29.3966 39.6288 26.3591 43.125 23 43.125C19.6409 43.125 16.6034 39.6288 14.7649 34.3953ZM32.4001 38.9235C32.9712 37.8525 33.4781 36.6952 33.9171 35.4679C35.0357 35.9903 36.1207 36.5952 37.165 37.2812C35.3231 39.1084 33.1307 40.5823 30.6989 41.593C31.3042 40.8022 31.8734 39.911 32.4001 38.9235ZM35.9123 21.5625C35.8146 18.6713 35.4231 15.88 34.7639 13.3091C36.2569 12.6375 37.6968 11.8331 39.0722 10.9022C41.3441 13.9129 42.7905 17.5793 43.073 21.5625H35.9123Z" fill="#777777"/>
</g>
<defs>
<clipPath id="clip0_226_231">
<rect width="46" height="46" fill="white"/>
</clipPath>
</defs>
</svg>
