<svg width="46" height="46" viewBox="0 0 46 46" fill="none" xmlns="http://www.w3.org/2000/svg">
<g clip-path="url(#clip0_226_224)">
<path d="M43.9722 13.1042L39.79 8.92014L41.6051 7.10506C41.7882 6.92825 41.9342 6.71676 42.0346 6.48292C42.1351 6.24907 42.188 5.99757 42.1902 5.74308C42.1924 5.48858 42.1439 5.2362 42.0475 5.00064C41.9511 4.76509 41.8088 4.55109 41.6289 4.37113C41.4489 4.19117 41.2349 4.04885 40.9993 3.95248C40.7638 3.85611 40.5114 3.80762 40.2569 3.80983C40.0024 3.81204 39.7509 3.86491 39.5171 3.96536C39.2832 4.06581 39.0717 4.21183 38.8949 4.39489L37.0798 6.20997L32.8958 2.02781C31.577 0.771091 29.8252 0.0700684 28.0035 0.0700684C26.1818 0.0700684 24.43 0.771091 23.1112 2.02781C22.4683 2.67021 21.9582 3.43301 21.6102 4.27262C21.2623 5.11223 21.0831 6.01219 21.0831 6.92106C21.0831 7.82992 21.2623 8.72988 21.6102 9.56949C21.9582 10.4091 22.4683 11.1719 23.1112 11.8143L27.2933 15.9965L15.9965 27.2933L11.8124 23.1111C10.4936 21.8544 8.74182 21.1534 6.92014 21.1534C5.09846 21.1534 3.34664 21.8544 2.02785 23.1111C1.38492 23.7535 0.874888 24.5163 0.526907 25.356C0.178926 26.1956 -0.000183105 27.0955 -0.000183105 28.0044C-0.000183105 28.9133 0.178926 29.8132 0.526907 30.6528C0.874888 31.4924 1.38492 32.2552 2.02785 32.8976L6.21002 37.0798L4.39493 38.8949C4.21187 39.0717 4.06586 39.2832 3.9654 39.517C3.86495 39.7509 3.81208 40.0024 3.80987 40.2569C3.80766 40.5114 3.85615 40.7637 3.95252 40.9993C4.0489 41.2349 4.19121 41.4489 4.37118 41.6288C4.55114 41.8088 4.76514 41.9511 5.00069 42.0475C5.23624 42.1438 5.48862 42.1923 5.74312 42.1901C5.99761 42.1879 6.24912 42.135 6.48296 42.0346C6.7168 41.9341 6.92829 41.7881 7.1051 41.6051L8.92018 39.79L13.1043 43.9721C13.7466 44.6148 14.5093 45.1246 15.3487 45.4724C16.1882 45.8202 17.0879 45.9992 17.9966 45.9992C18.9052 45.9992 19.8049 45.8202 20.6444 45.4724C21.4838 45.1246 22.2465 44.6148 22.8888 43.9721C23.5317 43.3299 24.0417 42.5673 24.3897 41.7278C24.7376 40.8884 24.9167 39.9886 24.9167 39.0798C24.9167 38.1711 24.7376 37.2713 24.3897 36.4319C24.0417 35.5924 23.5317 34.8298 22.8888 34.1876L18.7067 30.0054L30.015 18.7066L34.1972 22.8888C34.8395 23.5315 35.6022 24.0412 36.4417 24.389C37.2811 24.7369 38.1808 24.9159 39.0895 24.9159C39.9981 24.9159 40.8978 24.7369 41.7373 24.389C42.5767 24.0412 43.3394 23.5315 43.9818 22.8888C44.6246 22.2466 45.1346 21.4839 45.4826 20.6445C45.8305 19.805 46.0096 18.9052 46.0096 17.9965C46.0096 17.0878 45.8305 16.188 45.4826 15.3486C45.1346 14.5091 44.6246 13.7465 43.9818 13.1042H43.9722ZM21.0833 39.0808C21.0842 39.4861 21.0047 39.8876 20.8494 40.262C20.6941 40.6363 20.4661 40.9762 20.1787 41.262C19.5912 41.824 18.8096 42.1376 17.9966 42.1376C17.1836 42.1376 16.4019 41.824 15.8144 41.262L4.73802 30.1856C4.15928 29.6068 3.83415 28.8219 3.83415 28.0034C3.83415 27.185 4.15928 26.4 4.73802 25.8213C5.31675 25.2426 6.10169 24.9174 6.92014 24.9174C7.7386 24.9174 8.52353 25.2426 9.10227 25.8213L20.1787 36.8977C20.4664 37.1837 20.6945 37.5239 20.8497 37.8986C21.005 38.2734 21.0844 38.6752 21.0833 39.0808ZM41.262 20.1786C40.6745 20.7406 39.8929 21.0543 39.0799 21.0543C38.2669 21.0543 37.4852 20.7406 36.8978 20.1786L25.8214 9.10222C25.5348 8.81566 25.3075 8.47547 25.1524 8.10106C24.9973 7.72665 24.9175 7.32536 24.9175 6.9201C24.9175 6.51484 24.9973 6.11355 25.1524 5.73914C25.3075 5.36473 25.5348 5.02453 25.8214 4.73797C26.1079 4.45141 26.4481 4.2241 26.8225 4.06901C27.1969 3.91393 27.5982 3.83411 28.0035 3.83411C28.4087 3.83411 28.81 3.91393 29.1844 4.06901C29.5588 4.2241 29.899 4.45141 30.1856 4.73797L41.262 15.8144C41.5488 16.1008 41.7764 16.441 41.9316 16.8154C42.0868 17.1898 42.1667 17.5912 42.1667 17.9965C42.1667 18.4018 42.0868 18.8032 41.9316 19.1776C41.7764 19.5521 41.5488 19.8922 41.262 20.1786Z" fill="#777777"/>
</g>
<defs>
<clipPath id="clip0_226_224">
<rect width="46" height="46" fill="white"/>
</clipPath>
</defs>
</svg>
