<svg width="46" height="46" viewBox="0 0 46 46" fill="none" xmlns="http://www.w3.org/2000/svg">
<g clip-path="url(#clip0_226_234)">
<path d="M37.0879 32.4063C36.6118 31.6562 33.1224 26.2208 30.1401 23.3456C27.652 20.9566 23.9278 20.8875 23.5056 20.8875C23.4672 20.8877 23.4286 20.8891 23.3908 20.8921H22.4879C22.0891 20.8921 18.5151 20.96 15.9011 23.3131C12.6759 26.2196 9.10736 32.0819 8.85766 32.495C6.96723 35.484 5.80861 37.4279 5.80861 39.5891C5.80861 43.4836 8.66205 46 13.078 46H32.9234C37.3382 46 40.1908 43.4811 40.1908 39.5827C40.1908 37.4023 39.0294 35.4612 37.1339 32.4751C37.119 32.4518 37.1037 32.4287 37.0879 32.4063ZM32.9234 42.9844H13.078C11.4893 42.9844 8.82429 42.5433 8.82429 39.5891C8.82429 38.3267 9.6538 36.8772 11.4148 34.0937C11.4206 34.0845 11.4264 34.075 11.4323 34.0656C11.4674 34.0073 14.9769 28.2059 17.9194 25.5541C19.7137 23.9389 22.4624 23.9082 22.4891 23.908H23.5105C23.5392 23.908 23.5676 23.9072 23.5961 23.9055C24.0869 23.924 26.5593 24.0879 28.0497 25.5187C30.9212 28.2875 34.5483 34.0324 34.5846 34.0901C34.6009 34.116 34.6178 34.1412 34.6355 34.1657C36.5084 37.1207 37.1753 38.3913 37.1753 39.5823C37.1751 42.3941 34.8629 42.9844 32.9234 42.9844Z" fill="#777777"/>
<path d="M15.7214 17.2358C19.1249 17.2358 21.7907 13.4499 21.7907 8.61701C21.7909 3.78508 19.1249 0 15.7214 0C12.3183 0 9.6524 3.78508 9.6524 8.61701C9.6524 13.4501 12.3183 17.2358 15.7214 17.2358ZM15.7214 3.01568C17.1657 3.01568 18.775 5.31604 18.775 8.61701C18.775 11.919 17.1655 14.2201 15.7214 14.2201C14.2773 14.2201 12.6679 11.919 12.6679 8.61701C12.6681 5.31604 14.2773 3.01568 15.7214 3.01568Z" fill="#777777"/>
<path d="M7.77323 27.6028C8.36651 27.6028 8.93326 27.4808 9.46462 27.2369C12.1108 26.0065 12.8476 22.145 11.1413 18.445C9.81746 15.5797 7.36832 13.6547 5.04645 13.6547C4.45256 13.6547 3.88501 13.7771 3.35747 14.02C0.707686 15.2461 -0.0315577 19.1084 1.67512 22.8149C2.999 25.6786 5.44954 27.6026 7.77282 27.6028H7.77323ZM4.41336 21.5515C3.39285 19.3352 3.68256 17.1923 4.62104 16.7582C4.7495 16.6991 4.88843 16.6703 5.04625 16.6703C5.99317 16.6703 7.49136 17.7355 8.4031 19.7087C9.42361 21.9219 9.1339 24.065 8.19985 24.4993C8.07077 24.5584 7.93125 24.5873 7.77303 24.5873C6.8249 24.5871 5.3249 23.5224 4.41336 21.5515Z" fill="#777777"/>
<path d="M30.2756 17.2358C33.6779 17.2358 36.3432 13.4499 36.3432 8.61701C36.3432 3.78508 33.6779 0 30.2756 0C26.8701 0 24.2027 3.78508 24.2027 8.61701C24.2027 13.4501 26.8701 17.2358 30.2756 17.2358ZM30.2756 3.01568C31.7192 3.01568 33.3275 5.31604 33.3275 8.61701C33.3275 11.919 31.7192 14.2201 30.2756 14.2201C28.8297 14.2201 27.2183 11.919 27.2183 8.61701C27.2183 5.31604 28.8297 3.01568 30.2756 3.01568Z" fill="#777777"/>
<path d="M42.6426 14.0203C42.1164 13.7766 41.5475 13.653 40.9516 13.653C38.6331 13.653 36.1848 15.5786 34.8601 18.4433C33.1462 22.1417 33.8824 26.0046 36.5424 27.2402C37.067 27.4809 37.6339 27.6029 38.2272 27.6029C40.5511 27.6029 43.001 25.6785 44.3237 22.8136C46.0318 19.1097 45.2929 15.247 42.6426 14.0203ZM41.5855 21.55C40.6747 23.5227 39.1755 24.587 38.2272 24.587C38.0688 24.587 37.9292 24.5583 37.8064 24.502C36.8623 24.0635 36.5718 21.9215 37.5967 19.7101C38.5103 17.7344 40.0068 16.6684 40.9516 16.6684C41.1086 16.6684 41.2471 16.6972 41.3752 16.7565C42.3169 17.1928 42.6068 19.3355 41.5855 21.55Z" fill="#777777"/>
</g>
<defs>
<clipPath id="clip0_226_234">
<rect width="46" height="46" fill="white"/>
</clipPath>
</defs>
</svg>
