<svg width="46" height="46" viewBox="0 0 46 46" fill="none" xmlns="http://www.w3.org/2000/svg">
<path d="M22.7484 0.988281L1.04219 11.9312V44.9219H2.78516V12.9734L22.7664 2.96484L42.7656 13.0273V44.9219H44.4727V11.9312L22.7484 0.988281ZM33.7633 31.032L31.6789 25.6594C31.3016 24.6531 30.4391 23.7727 28.8399 23.7727H25.9109H20.9156H17.9688C16.3875 23.7727 15.543 24.6352 15.1297 25.6594L13.0453 31.032C12.2367 31.1398 10.7633 32.0922 10.7633 33.925V40.7352H12.7938V42.9094C12.7938 45.5867 16.6031 45.5508 16.6031 42.9094V40.7352H23.4313H30.2594V42.9094C30.2594 45.5508 34.0688 45.5867 34.0688 42.9094V40.7352H36.0992V33.925C36.0274 32.0922 34.5719 31.1039 33.7633 31.032ZM14.7344 36.6383C13.7641 36.6383 12.9734 35.8297 12.9734 34.8414C12.9734 33.8531 13.7641 33.0445 14.7344 33.0445C15.7047 33.0445 16.4953 33.8531 16.4953 34.8414C16.4953 35.8117 15.7227 36.6383 14.7344 36.6383ZM23.4133 30.9781H15.2016L16.7648 26.7734C16.9625 26.1805 17.25 25.7672 17.9508 25.7313H23.4133H28.8758C29.5586 25.7313 29.8641 26.1805 30.0617 26.7734L31.625 30.9781H23.4133ZM32.0742 36.6383C31.1039 36.6383 30.3133 35.8297 30.3133 34.8414C30.3133 33.8531 31.1039 33.0445 32.0742 33.0445C33.0445 33.0445 33.8352 33.8531 33.8352 34.8414C33.8352 35.8117 33.0086 36.6383 32.0742 36.6383ZM16.8367 21.7242C18.7414 21.7242 20.4484 20.6641 21.3109 19.1008H23.9703L25.6234 17.4477L26.9172 18.7414L28.157 17.5016L29.4149 18.7953L30.7086 17.5016L32.0024 18.7953L34.1586 16.6211C34.482 16.2977 34.482 16.082 34.1586 15.7586L32.3797 13.9617H21.3828C20.4484 12.3445 18.7773 11.3023 16.8547 11.3023C13.9797 11.3023 11.6617 13.6563 11.6617 16.5492C11.6617 19.3883 13.9977 21.7242 16.8367 21.7242ZM14.5727 15.0758C15.3453 15.0758 15.9383 15.7047 15.9383 16.4594C15.9383 17.232 15.3094 17.843 14.5727 17.843C13.8359 17.843 13.207 17.2141 13.207 16.4594C13.207 15.6867 13.818 15.0758 14.5727 15.0758Z" fill="#777777"/>
</svg>
