<svg width="46" height="46" viewBox="0 0 46 46" fill="none" xmlns="http://www.w3.org/2000/svg">
<g clip-path="url(#clip0_385_2)">
<path d="M41.6875 0H4.3125C3.16875 0 2.07185 0.454351 1.2631 1.2631C0.454351 2.07185 0 3.16875 0 4.3125L0 15.8125C0 16.9562 0.454351 18.0531 1.2631 18.8619C2.07185 19.6706 3.16875 20.125 4.3125 20.125H41.6875C42.8312 20.125 43.9281 19.6706 44.7369 18.8619C45.5456 18.0531 46 16.9562 46 15.8125V4.3125C46 3.16875 45.5456 2.07185 44.7369 1.2631C43.9281 0.454351 42.8312 0 41.6875 0ZM43.125 15.8125C43.125 16.1937 42.9736 16.5594 42.704 16.829C42.4344 17.0985 42.0687 17.25 41.6875 17.25H4.3125C3.93125 17.25 3.56562 17.0985 3.29603 16.829C3.02645 16.5594 2.875 16.1937 2.875 15.8125V4.3125C2.875 3.93125 3.02645 3.56562 3.29603 3.29603C3.56562 3.02645 3.93125 2.875 4.3125 2.875H41.6875C42.0687 2.875 42.4344 3.02645 42.704 3.29603C42.9736 3.56562 43.125 3.93125 43.125 4.3125V15.8125ZM31.625 12.9375C31.625 13.3187 31.4736 13.6844 31.204 13.954C30.9344 14.2235 30.5687 14.375 30.1875 14.375H10.0625C9.68125 14.375 9.31562 14.2235 9.04603 13.954C8.77645 13.6844 8.625 13.3187 8.625 12.9375C8.625 12.5563 8.77645 12.1906 9.04603 11.921C9.31562 11.6515 9.68125 11.5 10.0625 11.5H30.1875C30.5687 11.5 30.9344 11.6515 31.204 11.921C31.4736 12.1906 31.625 12.5563 31.625 12.9375ZM37.375 12.9375C37.375 13.2218 37.2907 13.4997 37.1327 13.7361C36.9748 13.9725 36.7503 14.1568 36.4876 14.2656C36.2249 14.3744 35.9359 14.4028 35.6571 14.3474C35.3782 14.2919 35.1221 14.155 34.921 13.954C34.72 13.7529 34.5831 13.4968 34.5276 13.2179C34.4722 12.9391 34.5006 12.6501 34.6094 12.3874C34.7182 12.1247 34.9025 11.9002 35.1389 11.7423C35.3753 11.5843 35.6532 11.5 35.9375 11.5C36.3187 11.5 36.6844 11.6515 36.954 11.921C37.2236 12.1906 37.375 12.5563 37.375 12.9375ZM25.875 23C24.7378 23 23.6261 23.3372 22.6805 23.9691C21.7349 24.6009 20.9979 25.4989 20.5627 26.5496C20.1275 27.6002 20.0136 28.7564 20.2355 29.8718C20.4573 30.9872 21.005 32.0117 21.8091 32.8159C22.6133 33.62 23.6378 34.1677 24.7532 34.3895C25.8686 34.6114 27.0248 34.4975 28.0754 34.0623C29.1261 33.6271 30.0241 32.8901 30.6559 31.9445C31.2878 30.9989 31.625 29.8872 31.625 28.75C31.625 27.225 31.0192 25.7625 29.9409 24.6841C28.8625 23.6058 27.4 23 25.875 23ZM25.875 31.625C25.3064 31.625 24.7505 31.4564 24.2777 31.1405C23.8049 30.8246 23.4364 30.3756 23.2188 29.8502C23.0012 29.3249 22.9443 28.7468 23.0552 28.1891C23.1662 27.6314 23.44 27.1191 23.8421 26.7171C24.2441 26.315 24.7564 26.0412 25.3141 25.9302C25.8718 25.8193 26.4499 25.8762 26.9752 26.0938C27.5006 26.3114 27.9496 26.6799 28.2655 27.1527C28.5814 27.6255 28.75 28.1814 28.75 28.75C28.75 29.5125 28.4471 30.2438 27.9079 30.7829C27.3688 31.3221 26.6375 31.625 25.875 31.625ZM16.445 34.5L13.2825 36.0813L16.445 37.6625C16.6768 37.83 16.8535 38.0628 16.9523 38.3312C17.0511 38.5996 17.0676 38.8913 16.9997 39.1691C16.9318 39.447 16.7825 39.6982 16.571 39.8908C16.3596 40.0833 16.0955 40.2084 15.8125 40.25C15.6039 40.2934 15.3886 40.2934 15.18 40.25L11.5 38.2663V41.6875C11.5 42.0687 11.3485 42.4344 11.079 42.704C10.8094 42.9736 10.4437 43.125 10.0625 43.125C9.68125 43.125 9.31562 42.9736 9.04603 42.704C8.77645 42.4344 8.625 42.0687 8.625 41.6875V38.2663L4.945 40.25C4.7364 40.2934 4.5211 40.2934 4.3125 40.25C3.98661 40.2513 3.66994 40.1419 3.41441 39.9397C3.15887 39.7374 2.97965 39.4543 2.90613 39.1368C2.8326 38.8193 2.86914 38.4863 3.00975 38.1923C3.15036 37.8983 3.38669 37.6608 3.68 37.5188L6.8425 35.9375L3.68 34.5C3.5101 34.4169 3.35823 34.3012 3.23305 34.1595C3.10787 34.0177 3.01184 33.8527 2.95044 33.6738C2.88903 33.495 2.86346 33.3057 2.87518 33.117C2.88691 32.9282 2.93569 32.7436 3.01875 32.5737C3.10181 32.4039 3.21752 32.252 3.35928 32.1268C3.50103 32.0016 3.66606 31.9056 3.84493 31.8442C4.02379 31.7828 4.21301 31.7572 4.40176 31.7689C4.59051 31.7807 4.7751 31.8294 4.945 31.9125L8.625 33.6087V30.1875C8.625 29.8063 8.77645 29.4406 9.04603 29.171C9.31562 28.9014 9.68125 28.75 10.0625 28.75C10.4437 28.75 10.8094 28.9014 11.079 29.171C11.3485 29.4406 11.5 29.8063 11.5 30.1875V33.6087L15.18 31.7688C15.3499 31.6857 15.5345 31.6369 15.7232 31.6252C15.912 31.6135 16.1012 31.639 16.2801 31.7004C16.4589 31.7618 16.624 31.8579 16.7657 31.9831C16.9075 32.1082 17.0232 32.2601 17.1062 32.43C17.1893 32.5999 17.2381 32.7845 17.2498 32.9732C17.2615 33.162 17.236 33.3512 17.1746 33.5301C17.1132 33.7089 17.0171 33.874 16.892 34.0157C16.7668 34.1575 16.6149 34.2732 16.445 34.3562V34.5ZM45.425 34.5L41.1987 37.375L45.425 40.5375C45.576 40.6508 45.7033 40.7927 45.7994 40.9551C45.8956 41.1175 45.9589 41.2973 45.9856 41.4842C46.0123 41.6711 46.0019 41.8614 45.955 42.0443C45.9082 42.2271 45.8258 42.399 45.7125 42.55C45.5771 42.7269 45.4032 42.8706 45.2039 42.9703C45.0046 43.0699 44.7853 43.1228 44.5625 43.125C44.2511 43.1271 43.9478 43.026 43.7 42.8375L40.25 40.25V44.5625C40.25 44.9437 40.0986 45.3094 39.829 45.579C39.5594 45.8486 39.1937 46 38.8125 46C38.4313 46 38.0656 45.8486 37.796 45.579C37.5264 45.3094 37.375 44.9437 37.375 44.5625V40.25L33.925 42.8375C33.6772 43.026 33.3739 43.1271 33.0625 43.125C32.8397 43.1228 32.6204 43.0699 32.4211 42.9703C32.2218 42.8706 32.0479 42.7269 31.9125 42.55C31.7992 42.399 31.7168 42.2271 31.67 42.0443C31.6231 41.8614 31.6127 41.6711 31.6394 41.4842C31.6661 41.2973 31.7294 41.1175 31.8256 40.9551C31.9217 40.7927 32.049 40.6508 32.2 40.5375L36.4263 37.375L32.2 34.2125C32.049 34.0992 31.9217 33.9573 31.8256 33.7949C31.7294 33.6325 31.6661 33.4527 31.6394 33.2658C31.6127 33.0789 31.6231 32.8886 31.67 32.7057C31.7168 32.5229 31.7992 32.351 31.9125 32.2C32.0258 32.049 32.1677 31.9217 32.3301 31.8256C32.4925 31.7294 32.6723 31.6661 32.8592 31.6394C33.0461 31.6127 33.2364 31.6231 33.4193 31.67C33.6021 31.7168 33.774 31.7992 33.925 31.9125L37.375 34.5V30.1875C37.375 29.8063 37.5264 29.4406 37.796 29.171C38.0656 28.9014 38.4313 28.75 38.8125 28.75C39.1937 28.75 39.5594 28.9014 39.829 29.171C40.0986 29.4406 40.25 29.8063 40.25 30.1875V34.5L43.7 31.9125C43.851 31.7992 44.0229 31.7168 44.2057 31.67C44.3886 31.6231 44.5789 31.6127 44.7658 31.6394C44.9527 31.6661 45.1325 31.7294 45.2949 31.8256C45.4573 31.9217 45.5992 32.049 45.7125 32.2C45.8258 32.351 45.9082 32.5229 45.955 32.7057C46.0019 32.8886 46.0123 33.0789 45.9856 33.2658C45.9589 33.4527 45.8956 33.6325 45.7994 33.7949C45.7033 33.9573 45.576 34.0992 45.425 34.2125V34.5Z" fill="#777777"/>
</g>
<defs>
<clipPath id="clip0_385_2">
<rect width="46" height="46" fill="white"/>
</clipPath>
</defs>
</svg>
