<svg width="46" height="46" viewBox="0 0 46 46" fill="none" xmlns="http://www.w3.org/2000/svg">
<path d="M31.4525 23.2492C30.8916 23.0874 30.3112 23.0035 29.7275 23H8.95083C7.33942 23 5.79401 23.6401 4.65457 24.7796C3.51513 25.919 2.875 27.4644 2.875 29.0758V29.7275C2.875 31.3389 3.51513 32.8843 4.65457 34.0238C5.79401 35.1632 7.33942 35.8033 8.95083 35.8033H21.1792" stroke="#777777" stroke-width="2.5" stroke-miterlimit="10"/>
<path d="M26.6608 12.0175H12.0175C8.99006 12.0175 6.53583 14.4717 6.53583 17.4991V17.5183C6.53583 20.5457 8.99006 23 12.0175 23H26.6608C29.6883 23 32.1425 20.5457 32.1425 17.5183V17.4991C32.1425 14.4717 29.6883 12.0175 26.6608 12.0175Z" stroke="#777777" stroke-width="2.5" stroke-miterlimit="10"/>
<path d="M23.92 2.875H14.7775C12.2476 2.875 10.1967 4.92162 10.1967 7.44625C10.1967 9.97088 12.2476 12.0175 14.7775 12.0175H23.92C26.4499 12.0175 28.5008 9.97088 28.5008 7.44625C28.5008 4.92162 26.4499 2.875 23.92 2.875Z" stroke="#777777" stroke-width="2.5" stroke-miterlimit="10"/>
<path d="M39.4642 32.1425H43.125V35.8033C43.125 37.7451 42.3536 39.6074 40.9805 40.9805C39.6075 42.3536 37.7452 43.125 35.8033 43.125H32.1425V39.4641C32.1425 37.5223 32.9139 35.66 34.287 34.2869C35.66 32.9138 37.5223 32.1425 39.4642 32.1425Z" stroke="#777777" stroke-width="2.5" stroke-miterlimit="10"/>
<path d="M36.4167 32.8325C36.8923 31.5249 36.9844 30.1086 36.6822 28.7503C36.38 27.3921 35.696 26.1485 34.7108 25.1659L32.1233 22.5784L31.4333 23.2684L29.5167 25.185C28.5274 26.165 27.8407 27.4087 27.5383 28.7679C27.2358 30.1272 27.3304 31.5447 27.8108 32.8517" stroke="#777777" stroke-width="2.5" stroke-miterlimit="10"/>
<path d="M21.16 35.8225V32.1617H24.8208C26.7462 32.1615 28.5941 32.9197 29.9644 34.2721C31.3348 35.6246 32.1173 37.4623 32.1425 39.3875V43.2208H28.4817C27.5137 43.2209 26.5553 43.029 25.662 42.6563C24.7686 42.2835 23.9581 41.7373 23.2772 41.0493C22.5963 40.3613 22.0586 39.5451 21.6952 38.6479C21.3318 37.7507 21.1499 36.7904 21.16 35.8225Z" stroke="#777777" stroke-width="2.5" stroke-miterlimit="10"/>
</svg>
